<svg width="42" height="40" viewBox="0 0 42 40" fill="none" xmlns="http://www.w3.org/2000/svg">
<rect width="42" height="40" rx="8" fill="#D9D9D9"/>
<path d="M12.0189 26.2179L9.21357 8.00219H7.50097C7.10289 8.00219 6.72111 7.84405 6.43962 7.56256C6.15814 7.28108 6 6.8993 6 6.50122C6 6.10314 6.15814 5.72136 6.43962 5.43988C6.72111 5.15839 7.10289 5.00025 7.50097 5.00025H10.4804C10.8425 4.99357 11.1946 5.11895 11.471 5.35298C11.7547 5.59154 11.9398 5.92689 11.9904 6.29409L12.4827 9.50315H24.0116V12.5051H12.945L14.7912 24.5128H28.8988L31.1502 17.008H34.2842L31.4534 26.4446C31.3607 26.7539 31.1708 27.0251 30.9117 27.2179C30.6527 27.4107 30.3384 27.5148 30.0155 27.5148H13.5288C13.1565 27.5216 12.795 27.3888 12.5157 27.1425C12.2436 26.9045 12.0666 26.5761 12.0174 26.2179H12.0189ZM18.0077 32.0177C18.0077 32.8138 17.6915 33.5774 17.1285 34.1403C16.5655 34.7033 15.802 35.0196 15.0058 35.0196C14.2096 35.0196 13.4461 34.7033 12.8831 34.1403C12.3201 33.5774 12.0039 32.8138 12.0039 32.0177C12.0039 31.2215 12.3201 30.4579 12.8831 29.895C13.4461 29.332 14.2096 29.0157 15.0058 29.0157C15.802 29.0157 16.5655 29.332 17.1285 29.895C17.6915 30.4579 18.0077 31.2215 18.0077 32.0177ZM31.5164 32.0177C31.5164 32.8138 31.2002 33.5774 30.6372 34.1403C30.0742 34.7033 29.3107 35.0196 28.5145 35.0196C27.7183 35.0196 26.9548 34.7033 26.3918 34.1403C25.8288 33.5774 25.5126 32.8138 25.5126 32.0177C25.5126 31.2215 25.8288 30.4579 26.3918 29.895C26.9548 29.332 27.7183 29.0157 28.5145 29.0157C29.3107 29.0157 30.0742 29.332 30.6372 29.895C31.2002 30.4579 31.5164 31.2215 31.5164 32.0177ZM31.5164 5.00025C31.9145 5.00025 32.2963 5.15839 32.5778 5.43988C32.8593 5.72136 33.0174 6.10314 33.0174 6.50122V8.00219H34.5184C34.9165 8.00219 35.2982 8.16033 35.5797 8.44181C35.8612 8.7233 36.0193 9.10507 36.0193 9.50315C36.0193 9.90124 35.8612 10.283 35.5797 10.5645C35.2982 10.846 34.9165 11.0041 34.5184 11.0041H33.0174V12.5051C33.0174 12.9032 32.8593 13.2849 32.5778 13.5664C32.2963 13.8479 31.9145 14.0061 31.5164 14.0061C31.1184 14.0061 30.7366 13.8479 30.4551 13.5664C30.1736 13.2849 30.0155 12.9032 30.0155 12.5051V11.0041H28.5145C28.1164 11.0041 27.7346 10.846 27.4532 10.5645C27.1717 10.283 27.0135 9.90124 27.0135 9.50315C27.0135 9.10507 27.1717 8.7233 27.4532 8.44181C27.7346 8.16033 28.1164 8.00219 28.5145 8.00219H30.0155V6.50122C30.0155 6.10314 30.1736 5.72136 30.4551 5.43988C30.7366 5.15839 31.1184 5.00025 31.5164 5.00025Z" fill="#0D0D0D"/>
</svg>
